HIERARCHY
ROOT Hips
{
	OFFSET 0.00000 0.00000 0.00000
	CHANNELS 6 Xposition Yposition Zposition Zrotation Yrotation Xrotation 
	JOINT LHipJoint
	{
		OFFSET 0 0 0
		CHANNELS 3 Zrotation Yrotation Xrotation
		JOINT LeftHip
		{
			OFFSET 1.54859 -1.61379 0.86856
			CHANNELS 3 Zrotation Yrotation Xrotation
			JOINT LeftKnee
			{
				OFFSET 2.25087 -6.18423 0.00000
				CHANNELS 3 Zrotation Yrotation Xrotation
				JOINT LeftAnkle
				{
					OFFSET 2.40328 -6.60297 0.00000
					CHANNELS 3 Zrotation Yrotation Xrotation
					JOINT LeftToe
					{
						OFFSET 0.17435 -0.47901 2.02453
						CHANNELS 3 Zrotation Yrotation Xrotation
						End Site
						{
							OFFSET 0.00000 -0.00000 1.04844
						}
					}
				}
			}
		}
	}
	JOINT RHipJoint
	{
		OFFSET 0 0 0
		CHANNELS 3 Zrotation Yrotation Xrotation
		JOINT RightHip
		{
			OFFSET -1.54669 -1.61379 0.86856
			CHANNELS 3 Zrotation Yrotation Xrotation
			JOINT RightKnee
			{
				OFFSET -2.28132 -6.26789 0.00000
				CHANNELS 3 Zrotation Yrotation Xrotation
				JOINT RightAnkle
				{
					OFFSET -2.51636 -6.91365 0.00000
					CHANNELS 3 Zrotation Yrotation Xrotation
					JOINT RightToe
					{
						OFFSET -0.15124 -0.41552 2.21090
						CHANNELS 3 Zrotation Yrotation Xrotation
						End Site
						{
							OFFSET -0.00000 -0.00000 1.13399
						}
					}
				}
			}
		}
	}
	JOINT lowerback
	{
		OFFSET 0 0 0
		CHANNELS 3 Zrotation Yrotation Xrotation
		JOINT Chest
		{
			OFFSET -0.04287 2.26161 -0.25690
			CHANNELS 3 Zrotation Yrotation Xrotation
			JOINT Chest2
			{
				OFFSET 0.02248 2.28395 -0.10140
				CHANNELS 3 Zrotation Yrotation Xrotation
				JOINT lowerneck
				{
					OFFSET 0 0 0
					CHANNELS 3 Zrotation Yrotation Xrotation
					JOINT Neck
					{
						OFFSET -0.11644 1.38496 0.11345
						CHANNELS 3 Zrotation Yrotation Xrotation
						JOINT Head
						{
							OFFSET 0.29383 1.36600 0.06642
							CHANNELS 3 Zrotation Yrotation Xrotation
							End Site
							{
								OFFSET 0.11075 1.41395 -0.00294
							}
						}
					}
				}
				JOINT LeftCollar
				{
					OFFSET 0 0 0
					CHANNELS 3 Zrotation Yrotation Xrotation
					JOINT LeftShoulder
					{
						OFFSET 3.51628 0.59542 -0.30346
CHANNELS 3 Zrotation Xrotation Yrotation
						JOINT LeftElbow
						{
OFFSET 0 -4.764050 0.000000
CHANNELS 3 Zrotation Xrotation Yrotation
							JOINT LeftWrist
							{
OFFSET 0 -3.137590 -0.000000
CHANNELS 3 Zrotation Xrotation Yrotation
								JOINT lhand
								{
									OFFSET 0 0 0
CHANNELS 3 Zrotation Xrotation Yrotation
									JOINT LFingers
									{
OFFSET 0 -0.732260 -0.000000
CHANNELS 3 Zrotation Xrotation Yrotation
										End Site
										{
OFFSET 0 -0.590370 -0.000000
										}
									}
								}
								JOINT LThumb
								{
OFFSET 0 0.000000 0.000000
CHANNELS 3 Zrotation Xrotation Yrotation
									End Site
									{
OFFSET 0 -0.599380 0.599380
									}
								}
							}
						}
					}
				}
				JOINT RightCollar
				{
					OFFSET 0 0 0
					CHANNELS 3 Zrotation Yrotation Xrotation
					JOINT RightShoulder
					{
						OFFSET -3.30990 0.84213 -0.36430
CHANNELS 3 Zrotation Xrotation Yrotation
						JOINT RightElbow
						{
OFFSET 0 -5.101610 -0.000000
CHANNELS 3 Zrotation Xrotation Yrotation
							JOINT RightWrist
							{
OFFSET 0 -3.232670 -0.000000
CHANNELS 3 Zrotation Xrotation Yrotation
								JOINT rhand
								{
									OFFSET 0 0 0
CHANNELS 3 Zrotation Xrotation Yrotation
									JOINT RFingers
									{
OFFSET 0 -0.702000 -0.000000
CHANNELS 3 Zrotation Xrotation Yrotation
										End Site
										{
OFFSET 0 -0.565970 -0.000000
										}
									}
								}
								JOINT RThumb
								{
OFFSET 0 0.000000 0.000000
CHANNELS 3 Zrotation Xrotation Yrotation
									End Site
									{
OFFSET 0 -0.574610 0.574610
									}
								}
							}
						}
					}
				}
			}
		}
	}
}
MOTION
Frames: 7
Frame Time: 0.008333333333333333
-32.104800 14.500100 -10.196800 47.930100 69.513900 51.537900 0.000000 0.000000 0.000000 -21.229900 10.202000 -7.534800 5.766100 14.197800 44.035500 -0.157200 -16.083900 -9.593500 5.721500 -14.152900 -43.853400 0.000000 0.000000 0.000000 15.201200 11.644500 -46.232000 -25.482800 -19.263400 106.222200 0.081900 -9.365700 -11.789100 -1.286600 7.187700 -20.272600 -13.826200 -5.075800 22.882300 -0.947100 -9.014500 7.774000 8.705100 -4.453500 -1.927300 -12.105400 -3.989100 -3.687600 18.068300 -2.761600 -17.620900 7.864400 -1.377000 -3.976700 0.000000 -0.000000 0.000000 -2.429200 -4.623100 -33.732300 65.457000 -57.596900 38.916600 38.225900 0.322200 -23.520700 0.000000 0.000000 0.000000 -7.125000 0.000000 0.000000 10.530100 58.657700 -3.541300 0.000000 -0.000000 0.000000 -12.147900 -2.797000 -12.807400 -116.059900 -57.271600 -82.361800 -27.253600 -46.249700 -26.846500 0.000000 0.000000 0.000000 7.125000 0.000000 -0.000000 1.672800 0.335400 1.663700
-31.967935 14.518131 -10.146027 47.558188 69.405229 51.300393 0.000000 0.000000 0.000000 -21.052124 10.428229 -6.844047 5.602061 14.024294 43.349132 -0.219344 -15.932671 -8.619061 5.237019 -13.573579 -41.689177 0.000000 0.000000 0.000000 15.192243 12.193910 -46.771455 -25.196052 -19.332668 105.359727 0.066213 -9.353703 -12.074015 -1.160317 6.796968 -19.130665 -13.874722 -5.146019 22.644770 -0.902383 -9.097506 7.696076 8.767731 -4.503902 -1.858311 -12.218039 -3.866065 -3.742086 17.992186 -2.618423 -17.448809 7.852171 -1.293252 -3.940360 0.000000 0.000000 0.000000 -2.090216 -4.541208 -33.999579 66.219179 -57.741864 39.562381 38.533023 0.540655 -22.925483 0.000000 0.000000 0.000000 -7.125000 0.000000 0.000000 10.903752 58.036006 -3.486327 0.000000 0.000000 0.000000 -11.930257 -2.777391 -12.239217 -116.736823 -57.110276 -82.929078 -27.442074 -46.295809 -26.661693 0.000000 0.000000 0.000000 7.125000 0.000000 0.000000 1.531967 0.489553 1.520662
-31.831070 14.536161 -10.095253 47.186276 69.296559 51.062887 0.000000 0.000000 0.000000 -20.874348 10.654458 -6.153293 5.438023 13.850787 42.662765 -0.281488 -15.781442 -7.644623 4.752538 -12.994257 -39.524954 0.000000 0.000000 0.000000 15.183285 12.743319 -47.310909 -24.909303 -19.401936 104.497254 0.050526 -9.341706 -12.358930 -1.034033 6.406237 -17.988730 -13.923245 -5.216239 22.407240 -0.857667 -9.180511 7.618153 8.830362 -4.554304 -1.789321 -12.330677 -3.743031 -3.796572 17.916073 -2.475246 -17.276718 7.839942 -1.209504 -3.904021 0.000000 0.000000 0.000000 -1.751233 -4.459317 -34.266858 66.981359 -57.886828 40.208163 38.840145 0.759110 -22.330266 0.000000 0.000000 0.000000 -7.125000 0.000000 0.000000 11.277405 57.414311 -3.431353 0.000000 0.000000 0.000000 -11.712614 -2.757783 -11.671034 -117.413746 -56.948953 -83.496356 -27.630548 -46.341918 -26.476885 0.000000 0.000000 0.000000 7.125000 0.000000 0.000000 1.391134 0.643706 1.377625
-31.694205 14.554192 -10.044480 46.814364 69.187888 50.825380 0.000000 0.000000 0.000000 -20.696572 10.880687 -5.462540 5.273984 13.677281 41.976397 -0.343632 -15.630212 -6.670184 4.268057 -12.414936 -37.360731 0.000000 0.000000 0.000000 15.174328 13.292729 -47.850364 -24.622555 -19.471204 103.634781 0.034840 -9.329709 -12.643846 -0.907750 6.015505 -16.846795 -13.971767 -5.286458 22.169710 -0.812950 -9.263517 7.540229 8.892994 -4.604706 -1.720332 -12.443316 -3.619996 -3.851058 17.839959 -2.332069 -17.104628 7.827712 -1.125756 -3.867681 0.000000 0.000000 0.000000 -1.412249 -4.377425 -34.534137 67.743538 -58.031791 40.853944 39.147268 0.977565 -21.735049 0.000000 0.000000 0.000000 -7.125000 0.000000 0.000000 11.651057 56.792617 -3.376380 0.000000 0.000000 0.000000 -11.494971 -2.738174 -11.102852 -118.090669 -56.787629 -84.063633 -27.819021 -46.388027 -26.292078 0.000000 0.000000 0.000000 7.125000 0.000000 0.000000 1.250300 0.797859 1.234587
-31.557340 14.572222 -9.993707 46.442452 69.079218 50.587873 0.000000 0.000000 0.000000 -20.518795 11.106916 -4.771786 5.109946 13.503775 41.290030 -0.405776 -15.478983 -5.695745 3.783575 -11.835615 -35.196508 0.000000 0.000000 0.000000 15.165371 13.842139 -48.389818 -24.335806 -19.540472 102.772308 0.019153 -9.317711 -12.928761 -0.781466 5.624774 -15.704860 -14.020289 -5.356677 21.932180 -0.768233 -9.346522 7.462306 8.955625 -4.655108 -1.651342 -12.555955 -3.496961 -3.905545 17.763846 -2.188892 -16.932537 7.815483 -1.042008 -3.831342 0.000000 0.000000 0.000000 -1.073265 -4.295533 -34.801417 68.505718 -58.176755 41.499726 39.454391 1.196020 -21.139832 0.000000 0.000000 0.000000 -7.125000 0.000000 0.000000 12.024710 56.170923 -3.321406 0.000000 0.000000 0.000000 -11.277328 -2.718566 -10.534669 -118.767592 -56.626306 -84.630911 -28.007495 -46.434136 -26.107271 0.000000 0.000000 0.000000 7.125000 0.000000 0.000000 1.109467 0.952012 1.091549
-31.420827 14.588474 -9.945145 46.165450 68.929775 50.459541 0.000000 0.000000 0.000000 -20.417883 11.296587 -4.078148 4.936275 13.304145 40.531205 -0.438863 -15.178000 -4.714335 3.501864 -11.452268 -33.837563 0.000000 0.000000 0.000000 15.064404 14.320967 -48.893710 -24.026460 -19.600268 101.850617 0.012281 -9.317285 -13.057560 -0.758443 5.560106 -15.513726 -14.112757 -5.428211 21.691205 -0.712795 -9.440442 7.368115 9.053579 -4.711232 -1.583635 -12.655965 -3.368397 -3.940735 17.630213 -2.041901 -16.799423 7.783541 -0.956224 -3.812792 0.000000 0.000000 0.000000 -0.789061 -4.160241 -35.017202 69.328783 -58.313882 42.200351 39.676828 1.234063 -20.535672 0.000000 0.000000 0.000000 -7.125000 0.000000 0.000000 12.264042 55.504145 -3.188527 0.000000 0.000000 0.000000 -11.054974 -2.719760 -9.949402 -119.394320 -56.463780 -85.153314 -28.234000 -46.400031 -26.004616 0.000000 0.000000 0.000000 7.125000 0.000000 0.000000 0.958184 1.009252 0.941395
-31.284472 14.603929 -9.897574 45.930960 68.762070 50.380109 0.000000 0.000000 0.000000 -20.351400 11.469885 -3.383218 4.758290 13.092814 39.739926 -0.458936 -14.809940 -3.729802 3.310977 -11.156701 -32.839316 0.000000 0.000000 0.000000 14.922225 14.768180 -49.381672 -23.706992 -19.655822 100.902400 0.009357 -9.322043 -13.116432 -0.781671 5.641487 -15.748471 -14.224909 -5.500333 21.448686 -0.652554 -9.539250 7.266638 9.167355 -4.769918 -1.516502 -12.750318 -3.237357 -3.967281 17.470815 -1.893201 -16.683767 7.742769 -0.869529 -3.802210 0.000000 0.000000 0.000000 -0.529393 -4.001029 -35.209922 70.179119 -58.447498 42.925541 39.861334 1.191295 -19.927506 0.000000 0.000000 0.000000 -7.125000 0.000000 0.000000 12.443211 54.817174 -3.020752 0.000000 0.000000 0.000000 -10.830508 -2.730272 -9.356482 -119.998563 -56.300716 -85.655617 -28.477540 -46.329998 -25.938759 0.000000 0.000000 0.000000 7.125000 0.000000 0.000000 0.802221 1.023082 0.788055
